P2
125 125
255
143
143
142
141
141
138
135
133
130
127
124
121
117
111
106
100
94
89
83
78
73
67
60
55
51
47
42
38
33
29
25
21
18
15
14
12
11
9
8
7
6
5
4
4
3
2
2
2
1
1
1
1
1
1
0
0
0
0
0
0
0
0
0
0
0
0
0
0
0
0
0
0
0
0
0
1
1
1
1
1
1
2
2
2
3
3
4
5
5
6
7
9
10
12
13
15
17
19
21
24
27
30
33
37
40
44
48
52
56
61
65
70
75
79
85
90
94
98
100
102
105
107
111
112
113
143
141
141
140
138
137
135
132
129
125
122
119
115
110
105
98
93
87
83
77
72
67
59
55
51
47
42
38
34
30
25
22
19
16
14
12
11
9
7
7
6
5
4
3
3
3
2
2
1
1
1
1
1
1
0
0
0
0
0
0
0
0
0
0
0
0
0
0
0
0
0
0
0
0
0
1
1
1
1
1
1
2
2
2
3
3
4
5
5
6
7
9
10
11
13
15
18
20
22
24
28
31
34
37
41
45
49
53
57
61
64
69
74
78
84
88
93
96
101
104
107
108
111
111
114
142
141
140
139
138
135
135
131
127
123
119
116
112
108
103
97
91
86
81
76
70
65
58
54
50
46
41
37
33
30
26
22
20
17
15
13
11
9
8
7
6
5
4
3
3
3
2
2
2
1
1
1
1
0
0
0
0
0
0
0
0
0
0
0
0
0
0
0
0
0
0
0
0
0
0
1
1
1
1
1
1
2
2
2
3
4
4
5
6
7
7
8
10
12
13
15
18
20
22
25
28
32
34
38
41
44
49
53
57
61
65
69
75
79
85
90
94
98
101
102
106
107
110
111
114
141
140
139
139
138
136
135
129
126
121
117
113
109
104
101
95
89
84
79
74
68
63
57
53
49
45
40
36
33
30
26
23
20
17
15
13
11
9
8
7
6
5
4
4
4
4
4
3
3
1
1
1
1
1
0
0
0
0
0
0
0
0
0
0
0
0
0
0
0
0
0
0
0
0
0
0
1
1
1
1
1
2
2
2
3
3
4
5
6
6
8
9
10
12
13
15
18
20
23
26
29
32
34
37
41
45
48
52
56
60
65
69
74
79
84
89
94
99
99
101
105
108
110
112
114
141
140
139
139
138
136
134
129
125
121
116
112
108
102
98
92
87
82
78
73
68
62
56
52
48
43
39
35
32
29
25
23
20
17
14
12
11
10
8
7
6
6
7
6
5
4
4
3
3
1
1
1
1
0
0
0
0
0
0
0
0
0
0
0
0
0
0
0
0
0
0
0
0
0
0
0
1
1
1
1
1
1
2
2
2
3
4
4
5
6
8
9
10
11
14
15
18
20
23
26
30
33
34
37
41
44
48
52
56
60
64
68
73
78
83
88
92
96
100
105
109
111
115
118
120
140
139
139
138
137
134
131
128
124
121
117
112
107
102
96
90
85
81
76
72
67
61
56
51
47
42
37
33
30
28
25
22
19
16
14
12
11
10
10
10
10
8
7
6
5
4
3
3
2
1
1
1
1
0
0
0
0
0
0
0
0
0
0
0
0
0
0
0
0
0
0
0
0
0
0
0
1
1
1
1
1
2
2
2
3
3
4
4
5
6
8
9
11
12
14
16
18
20
23
26
29
32
34
37
41
44
48
52
55
60
64
69
73
79
83
88
93
97
103
106
111
115
118
121
125
139
139
138
136
133
130
128
125
123
119
116
110
106
101
94
89
84
79
74
69
64
59
55
49
44
40
38
34
31
27
24
22
20
18
17
16
15
15
13
11
10
8
7
6
5
4
3
3
2
1
1
1
1
0
0
0
0
0
0
0
0
0
0
0
0
0
0
0
0
0
0
0
0
0
0
0
1
1
1
1
1
2
2
2
3
3
4
4
5
6
9
10
11
12
14
16
18
20
23
25
29
32
35
38
42
49
51
51
59
64
66
70
71
79
84
90
96
102
107
111
117
121
125
129
130
135
134
136
133
130
126
125
122
121
117
114
109
104
99
93
88
84
78
73
68
64
58
52
49
45
40
35
31
28
25
24
24
24
24
22
19
17
15
12
10
9
8
7
5
4
4
3
3
2
1
1
1
1
0
0
0
0
0
0
0
0
0
0
0
0
0
0
0
0
0
0
0
0
0
0
0
1
1
1
1
1
2
2
2
3
3
4
4
5
6
9
9
11
13
14
16
18
20
23
25
28
32
37
40
42
47
46
45
52
56
66
69
69
83
89
91
92
95
107
112
116
122
126
131
132
132
133
134
132
129
126
123
119
118
114
111
106
101
96
91
86
82
76
72
67
62
57
52
47
44
39
34
33
33
31
33
30
28
25
22
19
16
14
12
11
9
7
6
5
4
4
3
3
2
1
1
1
1
1
0
0
0
0
0
0
0
0
0
0
0
0
0
0
0
0
0
0
0
0
0
0
1
1
1
1
1
1
2
2
3
3
4
4
5
6
9
10
11
13
14
16
17
20
23
27
31
35
35
36
38
40
35
30
32
34
32
35
40
72
89
100
103
109
110
115
118
123
126
129
132
131
131
132
131
129
125
119
116
114
111
107
103
99
94
90
85
80
75
71
65
61
56
54
46
45
44
41
42
41
38
34
31
27
24
21
18
15
13
12
10
8
7
6
5
5
4
3
3
2
1
1
1
1
0
0
0
0
0
0
0
0
0
0
0
0
0
0
0
0
0
0
0
0
0
0
0
1
1
1
1
1
1
2
2
2
3
3
4
5
6
9
10
11
13
15
17
19
21
22
22
22
22
27
30
33
37
33
28
30
32
38
38
41
79
98
106
108
113
113
117
121
123
125
128
130
127
128
129
127
125
121
117
113
111
107
104
100
96
91
86
82
77
73
68
63
59
55
52
46
51
53
50
47
42
37
32
29
26
23
20
17
15
13
11
9
8
7
6
5
4
4
3
3
2
1
1
1
1
1
0
0
0
0
0
0
0
0
0
0
0
0
0
0
0
0
0
0
0
0
0
0
1
1
1
1
1
1
2
2
2
3
3
4
5
6
9
11
13
14
14
14
15
15
16
18
21
25
25
29
33
37
35
30
34
36
36
36
35
77
96
105
107
113
114
117
120
123
125
127
129
123
123
124
123
119
116
113
109
107
104
101
97
92
88
83
79
74
70
66
62
57
53
49
46
55
57
50
45
38
35
32
28
25
21
18
16
14
12
11
9
8
7
6
5
4
3
3
2
2
1
1
1
0
0
0
0
0
0
0
0
0
0
0
0
0
0
0
0
0
0
0
0
0
0
0
0
1
1
1
1
1
1
2
2
2
3
3
4
5
6
8
9
9
9
10
11
13
15
16
18
20
22
25
28
31
34
31
26
29
32
39
40
36
78
93
99
100
104
108
110
115
118
121
124
127
119
118
118
116
113
110
108
105
103
100
97
92
88
84
79
75
72
68
64
60
56
52
48
44
53
54
46
41
36
33
29
26
23
21
18
16
14
12
10
9
7
6
6
4
3
3
2
1
2
1
1
0
0
0
0
0
0
0
0
0
0
0
0
0
0
0
0
0
0
0
0
0
0
0
0
0
1
1
1
1
1
1
2
2
2
3
3
4
5
4
3
3
4
5
6
7
8
10
11
13
16
18
22
26
29
33
31
27
31
34
32
35
32
74
88
94
96
101
103
106
111
113
117
120
124
115
114
113
111
108
105
103
101
98
96
92
89
85
80
76
72
69
65
61
58
54
50
46
40
50
51
44
39
34
31
28
25
22
19
17
15
13
11
10
8
7
6
5
3
2
3
3
1
2
1
1
0
0
0
0
0
0
0
0
0
0
0
0
0
0
0
0
0
0
0
0
0
0
0
0
0
0
0
0
0
0
0
1
1
1
1
2
3
4
4
3
4
5
5
6
8
9
10
12
13
15
17
21
25
29
34
31
27
30
32
33
38
35
76
88
93
94
97
102
106
108
112
115
118
121
111
110
108
107
104
101
99
95
94
91
89
86
82
76
72
69
67
62
58
54
51
48
43
37
48
48
42
38
32
30
26
24
20
19
16
14
13
11
7
7
7
6
5
2
2
3
2
1
2
1
1
0
0
0
0
0
0
0
0
0
0
0
0
0
0
0
0
0
0
0
0
0
0
0
0
0
0
0
0
0
0
0
0
0
0
1
2
4
3
3
3
4
5
5
6
7
8
10
11
13
15
16
21
25
29
33
28
28
29
32
34
36
33
78
85
92
95
97
104
107
108
111
115
118
119
105
104
103
101
101
98
97
94
92
89
86
82
77
73
69
66
63
60
55
52
48
45
40
36
46
44
40
34
33
28
26
23
20
17
14
10
6
3
2
6
6
5
5
2
2
3
2
1
1
1
1
0
0
0
0
0
0
0
0
0
0
0
0
0
0
0
0
0
0
0
0
0
0
0
0
0
0
0
0
0
0
0
0
0
1
1
2
4
3
3
3
3
4
5
6
6
7
9
10
11
13
14
19
22
27
32
27
28
29
32
34
35
32
76
83
89
92
95
100
103
106
110
114
116
118
99
98
97
97
97
96
93
89
87
84
81
77
72
68
66
63
60
56
53
50
46
42
40
36
44
43
39
32
30
26
23
22
18
8
4
3
2
2
2
6
6
5
4
2
2
3
2
1
1
1
1
0
0
0
0
0
0
0
0
0
0
0
0
0
0
0
0
0
0
0
0
0
0
0
0
0
0
0
0
0
0
0
0
0
1
1
2
4
3
3
3
3
4
4
5
6
7
8
9
10
11
13
17
20
25
32
25
26
27
30
32
34
32
73
80
85
88
91
96
99
103
106
110
113
115
94
93
93
92
92
90
88
85
82
79
76
73
69
65
62
60
57
53
50
46
42
38
36
32
39
38
35
32
22
25
22
20
16
6
5
5
4
3
2
6
5
5
4
3
3
3
2
1
1
1
1
0
0
0
0
0
0
0
0
0
0
0
0
0
0
0
0
0
0
0
0
0
0
0
0
0
0
0
0
0
0
0
0
0
1
1
2
3
3
3
2
3
4
4
5
5
6
7
8
9
10
12
16
19
24
32
23
25
26
28
30
31
30
70
76
80
83
86
90
93
97
101
104
106
108
89
89
89
88
86
84
83
80
77
75
73
70
67
63
59
57
55
50
46
42
39
36
35
30
39
28
31
29
9
18
21
18
15
6
6
5
4
4
2
6
5
5
4
3
3
2
2
1
1
1
0
0
0
0
0
0
0
0
0
0
0
0
0
0
0
0
0
0
0
0
0
0
0
0
0
0
0
0
0
1
1
1
1
1
1
2
3
3
3
3
2
3
3
4
4
5
6
7
8
9
10
11
15
17
22
29
21
24
25
27
28
30
29
66
72
75
77
81
84
88
91
94
96
98
99
83
83
83
82
80
78
76
74
72
70
68
66
63
60
57
55
52
48
43
40
37
35
34
27
35
13
25
27
7
20
19
17
14
5
6
5
4
4
2
5
5
4
3
3
2
2
2
1
1
1
0
0
0
0
0
0
0
0
0
0
0
0
0
0
0
0
0
0
0
0
0
0
0
0
0
0
0
0
0
0
0
1
1
1
1
1
2
3
3
2
2
2
3
4
4
5
6
6
7
8
9
10
14
16
20
25
19
22
24
26
27
28
28
63
67
70
72
75
79
82
85
88
89
91
92
77
77
77
76
75
73
71
69
67
65
64
61
59
56
54
52
49
45
41
38
35
33
29
27
35
12
27
27
7
17
17
16
13
5
5
5
4
4
2
5
5
4
3
3
2
2
1
0
1
0
0
0
0
0
0
0
0
0
0
0
0
0
0
0
0
0
0
0
0
0
0
0
0
0
0
0
0
0
0
0
0
1
1
1
1
1
2
2
2
2
2
2
3
3
4
5
5
6
7
8
9
10
12
15
18
21
18
21
22
24
25
26
26
59
63
64
66
69
72
75
78
80
82
83
85
72
71
71
70
70
68
68
65
63
61
60
57
55
52
51
48
44
41
38
36
33
30
28
27
30
11
24
24
7
17
16
15
12
5
5
4
4
3
3
5
4
4
3
2
2
2
1
1
1
0
0
0
0
0
0
0
0
0
0
0
0
0
0
0
0
0
0
0
0
0
0
0
0
0
0
0
0
0
0
0
0
0
1
1
1
1
2
2
2
2
2
2
3
3
4
4
5
6
6
7
8
9
12
14
17
18
16
19
20
21
23
24
24
54
58
59
60
63
65
68
70
72
74
76
78
67
66
65
63
63
62
63
60
58
57
55
53
51
50
46
44
41
39
36
33
30
28
27
23
28
12
22
21
19
17
15
13
11
4
5
4
4
3
2
4
4
3
3
2
1
1
1
0
1
0
0
0
0
0
0
0
0
0
0
0
0
0
0
0
0
0
0
0
0
0
0
0
0
0
0
0
0
0
0
0
0
0
0
0
1
1
2
2
2
2
2
2
3
3
3
4
5
5
6
6
7
8
10
13
15
16
16
16
18
19
20
22
22
50
51
54
56
58
60
62
64
66
67
67
68
59
59
60
60
60
59
54
53
53
53
52
48
46
45
43
40
38
35
33
30
28
25
24
23
25
9
21
20
17
15
14
12
10
4
4
4
4
3
2
4
3
3
2
1
1
1
1
1
1
0
0
0
0
0
0
0
0
0
0
0
0
0
0
0
0
0
0
0
0
0
0
0
0
0
0
0
0
0
0
0
0
0
0
0
1
1
2
2
2
2
2
2
2
3
3
4
4
5
5
6
7
8
8
10
12
14
15
16
17
18
19
20
19
44
46
48
50
53
53
54
59
56
57
65
60
55
55
54
53
52
50
49
49
49
49
47
45
43
42
39
37
35
32
30
28
27
25
23
22
22
9
19
17
16
14
13
11
9
4
4
4
3
3
2
4
3
3
2
1
1
1
1
0
1
0
0
0
0
0
0
0
0
0
0
0
0
0
0
0
0
0
0
0
0
0
0
0
0
0
0
0
0
0
0
0
0
0
0
0
1
1
2
2
2
1
1
2
2
2
3
3
4
4
5
5
6
7
8
10
11
11
12
13
15
16
17
17
18
37
39
40
41
44
49
48
49
53
54
56
50
51
50
49
49
50
51
49
47
45
43
42
41
39
37
36
34
32
31
29
28
26
24
23
21
20
8
17
16
15
12
11
10
8
4
4
3
3
3
2
3
3
2
2
1
1
1
1
0
1
0
0
0
0
0
0
0
0
0
0
0
0
0
0
0
0
0
0
0
0
0
0
0
0
0
0
0
0
0
0
0
0
0
0
0
1
1
2
2
2
2
2
2
2
3
3
3
4
4
5
5
6
7
7
8
10
11
12
13
14
14
15
17
20
35
36
36
35
36
29
31
25
42
48
48
49
46
47
50
53
57
59
55
51
47
44
42
40
38
35
34
33
32
30
29
27
25
23
21
20
18
7
17
15
12
12
10
9
7
4
3
3
3
3
3
3
3
2
2
1
1
1
1
0
1
0
0
0
0
0
0
0
0
0
0
0
0
0
0
0
0
0
0
0
0
0
0
0
0
0
0
0
0
0
0
0
0
0
0
0
1
1
2
1
2
1
2
2
2
2
3
3
3
4
4
5
5
6
7
8
9
9
10
10
11
13
13
13
13
16
17
21
25
29
34
39
31
41
45
46
46
45
48
52
55
56
55
55
52
49
46
44
42
39
36
33
32
31
30
28
26
24
22
20
19
16
5
14
8
5
10
9
8
6
3
3
3
3
3
3
3
2
2
2
1
1
1
1
1
0
0
0
0
0
0
0
0
0
0
0
0
0
0
0
0
0
0
0
0
0
0
0
0
0
0
0
0
0
0
0
0
0
0
0
0
0
0
1
1
1
1
1
1
1
2
2
2
3
3
3
4
4
5
5
5
6
6
7
8
9
11
12
13
14
14
13
14
14
16
14
16
18
20
21
24
26
46
49
50
50
48
47
47
46
44
42
41
39
37
34
32
31
29
28
26
24
22
20
17
17
14
5
12
5
4
10
8
8
5
3
3
3
3
2
2
2
2
2
2
1
0
0
1
1
0
0
0
0
0
0
0
0
0
0
0
0
0
0
0
0
0
0
0
0
0
0
0
0
0
0
0
0
0
0
0
0
0
0
0
0
0
0
1
1
1
1
1
1
1
2
2
2
2
3
3
3
4
4
5
5
6
7
6
5
4
3
3
4
6
6
8
10
10
12
14
15
17
16
15
14
17
44
45
44
43
43
44
42
41
40
38
36
35
33
32
30
28
26
25
23
21
19
18
16
15
12
5
9
4
5
8
7
7
5
3
2
2
2
2
1
2
2
2
1
1
0
0
1
1
0
0
0
0
0
0
0
0
0
0
0
0
0
0
0
0
0
0
0
0
0
0
0
0
0
0
0
0
0
0
0
0
0
0
0
0
0
1
1
1
1
1
1
1
1
1
2
2
2
2
3
3
3
3
4
4
5
5
5
5
5
5
6
5
7
5
7
8
6
8
7
9
8
10
17
21
27
39
40
40
39
39
38
38
37
35
34
32
31
29
28
26
25
23
22
20
19
17
16
14
13
11
4
9
4
4
8
7
6
4
2
2
2
2
0
1
2
2
1
1
1
0
0
1
1
0
0
0
0
0
0
0
0
0
0
0
0
0
0
0
0
0
0
0
0
0
0
0
0
0
0
0
0
0
0
0
0
0
0
0
0
0
1
1
1
1
1
1
1
1
1
1
2
2
2
2
3
3
3
4
4
5
5
5
5
5
6
6
7
6
6
7
8
9
9
10
10
11
27
31
32
31
35
35
35
35
34
34
33
32
31
30
28
27
26
24
23
21
20
19
17
16
15
14
12
11
10
4
8
4
4
7
6
5
4
2
2
2
1
0
1
2
2
1
1
0
0
0
0
0
0
0
0
0
0
0
0
0
0
0
0
0
0
0
0
0
0
0
0
0
0
0
0
0
0
0
0
0
0
0
0
0
0
0
0
0
0
1
1
1
1
1
1
1
1
1
1
1
2
2
2
2
2
3
3
3
4
4
4
4
4
5
6
7
7
6
7
8
8
8
8
10
12
26
25
25
26
31
31
31
31
30
30
29
28
27
25
24
23
22
20
19
18
17
16
15
14
13
12
11
11
8
3
7
3
3
6
5
5
3
2
2
1
2
1
2
2
1
1
1
0
0
0
0
0
0
0
0
0
0
0
0
0
0
0
0
0
0
0
0
0
0
0
0
0
0
0
0
0
0
0
0
0
0
0
0
0
0
0
0
0
0
0
1
1
1
1
1
1
1
1
1
1
1
2
2
2
2
2
2
3
3
3
4
4
4
5
5
6
6
6
7
8
8
8
9
8
9
20
22
24
24
28
28
28
28
27
26
25
24
23
22
20
19
18
17
16
15
15
14
13
12
12
11
9
9
8
6
6
3
3
5
5
4
3
1
2
1
2
2
1
1
1
1
1
0
0
0
0
0
0
0
0
0
0
0
0
0
0
0
0
0
0
0
0
0
0
0
0
0
0
0
0
0
0
0
0
0
0
0
0
0
0
0
0
0
0
0
0
1
1
1
1
1
1
1
1
1
1
2
2
2
1
1
1
1
2
2
2
3
3
4
4
5
6
6
6
6
6
7
7
8
9
14
13
12
14
24
24
25
25
24
23
22
21
20
19
17
16
15
15
14
13
13
12
12
11
10
10
9
8
7
7
5
3
3
5
4
4
3
1
1
1
1
1
1
1
1
1
1
0
0
0
0
0
0
0
0
0
0
0
0
0
0
0
0
0
0
0
0
0
0
0
0
0
0
0
0
0
0
0
0
0
0
0
0
0
0
0
0
0
0
0
0
1
1
1
1
1
1
1
1
1
1
1
2
2
2
3
3
3
4
4
4
4
3
3
4
4
5
5
5
5
5
6
6
7
6
9
11
11
11
20
20
20
20
20
19
18
17
16
16
15
14
13
13
12
12
11
11
10
10
9
8
8
7
6
6
4
2
3
4
3
3
2
1
1
1
1
1
1
1
1
1
1
0
0
0
0
0
0
0
0
0
0
0
0
0
0
0
0
0
0
0
0
0
0
0
0
0
0
0
0
0
0
0
0
0
0
0
0
0
0
0
0
0
0
0
0
1
1
0
0
1
1
1
1
1
1
1
1
2
2
2
2
3
3
4
4
4
4
5
5
5
5
5
5
4
4
5
5
6
6
7
8
8
8
16
16
16
16
16
15
15
14
14
13
13
12
12
11
11
10
10
9
9
8
8
7
6
6
6
5
4
2
2
4
3
3
2
1
1
1
1
1
1
1
1
1
0
0
0
0
0
0
0
0
0
0
0
0
0
0
0
0
0
0
0
0
0
0
0
0
0
0
0
0
0
0
0
0
0
0
0
0
0
0
0
0
0
0
0
0
0
0
0
0
0
0
0
0
1
1
1
1
1
1
1
1
1
1
1
2
2
2
2
2
3
3
3
4
4
4
5
5
6
6
7
6
6
6
6
13
13
13
13
13
12
12
12
12
11
11
11
10
10
9
9
8
8
8
7
7
6
6
5
4
2
3
2
2
3
3
2
1
1
1
1
1
1
1
1
1
1
0
0
0
0
0
0
0
0
0
0
0
0
0
0
0
0
0
0
0
0
0
0
0
0
0
0
0
0
0
0
0
0
0
0
0
0
0
0
0
0
0
0
0
0
0
0
0
0
0
0
0
0
1
1
1
1
1
1
1
1
1
1
1
2
2
2
2
2
2
2
2
2
2
2
2
2
2
2
3
4
4
5
7
12
11
11
11
11
11
10
10
9
9
9
9
9
8
8
7
7
7
6
6
6
5
5
4
3
2
3
1
2
3
2
2
1
1
1
1
1
1
1
1
1
0
0
0
0
0
0
0
0
0
0
0
0
0
0
0
0
0
0
0
0
0
0
0
0
0
0
0
0
0
0
0
0
0
0
0
0
0
0
0
0
0
0
0
0
0
0
0
0
0
0
0
0
0
1
1
1
0
0
1
1
1
1
1
1
1
2
2
2
2
2
2
2
2
2
2
2
2
3
4
5
9
9
10
10
10
10
10
10
9
9
9
8
8
7
7
7
7
7
7
6
6
6
5
5
5
4
4
4
3
2
2
1
2
2
2
2
1
1
0
0
0
1
0
1
1
0
0
0
0
0
0
0
0
0
0
0
0
0
0
0
0
0
0
0
0
0
0
0
0
0
0
0
0
0
0
0
0
0
0
0
0
0
0
0
0
0
0
0
0
0
0
0
0
0
0
0
0
0
0
0
0
0
1
1
1
1
1
1
1
1
1
2
2
2
2
2
2
2
2
2
3
3
4
4
4
7
7
8
8
8
8
8
8
8
8
8
7
7
6
6
6
6
6
5
5
5
5
4
4
4
3
3
3
2
1
2
1
1
2
2
2
1
0
0
0
0
0
0
1
0
0
0
0
0
0
0
0
0
0
0
0
0
0
0
0
0
0
0
0
0
0
0
0
0
0
0
0
0
0
0
0
0
0
0
0
0
0
0
0
0
0
0
0
0
0
0
0
0
0
0
0
0
0
0
0
0
0
0
1
1
1
1
1
1
1
1
1
2
2
2
2
2
2
2
2
2
2
3
4
4
6
7
6
7
7
7
7
7
7
7
6
6
6
5
5
5
5
5
4
4
4
4
4
3
3
3
3
3
2
1
2
1
1
2
1
1
1
0
0
0
0
0
0
0
0
0
0
0
0
0
0
0
0
0
0
0
0
0
0
0
0
0
0
0
0
0
0
0
0
0
0
0
0
0
0
0
0
0
0
0
0
0
0
0
0
0
0
0
0
0
0
0
0
0
0
0
0
0
0
0
0
0
0
0
0
0
1
1
1
1
1
1
1
2
2
2
2
2
2
2
2
2
3
3
3
4
4
4
5
6
5
5
5
6
5
5
5
5
5
4
4
4
4
4
4
3
3
3
3
3
2
2
2
2
2
2
2
2
1
1
1
1
0
0
0
0
0
0
0
0
0
0
0
0
0
0
0
0
0
0
0
0
0
0
0
0
0
0
0
0
0
0
0
0
0
0
0
0
0
0
0
0
0
0
0
0
0
0
0
0
0
0
0
0
0
0
0
0
0
0
0
0
0
0
0
0
0
0
1
1
1
1
1
1
1
1
1
1
1
1
2
1
1
1
2
2
2
2
2
2
3
3
3
3
5
5
5
5
5
5
4
4
4
4
4
4
4
3
3
3
3
3
3
2
2
2
2
2
2
2
2
1
1
1
0
1
1
0
0
0
0
0
0
0
0
0
0
0
0
0
0
0
0
0
0
0
0
0
0
0
0
0
0
0
0
0
0
0
0
0
0
0
0
0
0
0
0
0
0
0
0
0
0
0
0
0
0
0
0
0
0
0
0
0
0
0
0
0
0
0
0
0
0
0
0
1
1
1
1
1
1
1
1
1
1
1
1
1
1
1
1
1
1
2
2
2
3
3
3
4
4
4
4
4
4
4
4
3
3
3
3
3
3
3
3
2
2
2
2
2
2
1
2
2
2
1
1
0
0
1
1
1
0
0
0
0
0
0
0
0
0
0
0
0
0
0
0
0
0
0
0
0
0
0
0
0
0
0
0
0
0
0
0
0
0
0
0
0
0
0
0
0
0
0
0
0
0
0
0
0
0
0
0
0
0
0
0
0
0
0
0
0
0
0
0
0
0
0
0
0
0
0
0
0
0
1
1
1
1
1
1
1
1
1
1
1
2
2
2
2
2
2
2
2
3
3
3
3
3
3
3
3
3
3
3
3
2
2
2
2
2
2
2
2
1
1
1
1
2
1
1
1
0
0
0
0
0
0
0
0
0
0
0
0
0
0
0
0
0
0
0
0
0
0
0
0
0
0
0
0
0
0
0
0
0
0
0
0
0
0
0
0
0
0
0
0
0
0
0
0
0
0
0
0
0
0
0
0
0
0
0
0
0
0
0
0
0
0
0
0
0
0
0
0
0
0
0
0
0
0
1
1
1
1
1
1
1
1
1
1
1
1
1
1
1
1
1
1
2
3
3
3
3
3
3
2
2
2
2
2
2
2
2
2
2
2
1
1
1
1
1
1
1
1
1
0
1
0
0
0
0
0
0
0
0
0
0
0
0
0
0
0
0
0
0
0
0
0
0
0
0
0
0
0
0
0
0
0
0
0
0
0
0
0
0
0
0
0
0
0
0
0
0
0
0
0
0
0
0
0
0
0
0
0
0
0
0
0
0
0
0
0
0
0
0
0
0
0
0
0
0
0
0
0
0
0
1
1
1
1
1
1
1
1
1
1
1
1
1
2
2
3
3
3
2
2
2
2
2
2
2
2
2
2
2
2
2
2
1
1
1
1
1
1
1
1
1
1
1
1
0
1
0
0
0
0
0
0
0
0
0
0
0
0
0
0
0
0
0
0
0
0
0
0
0
0
0
0
0
0
0
0
0
0
0
0
0
0
0
0
0
0
0
0
0
0
0
0
0
0
0
0
0
0
0
0
0
0
0
0
0
0
0
0
0
0
0
0
0
0
0
0
0
0
0
0
0
0
0
0
0
1
1
1
1
1
1
1
1
1
1
1
1
1
2
3
3
3
3
2
2
2
2
2
2
2
2
2
2
1
1
1
1
1
1
1
1
1
1
1
1
1
1
1
1
0
1
0
0
0
0
0
0
0
0
0
0
0
0
0
0
0
0
0
0
0
0
0
0
0
0
0
0
0
0
0
0
0
0
0
0
0
0
0
0
0
0
0
0
0
0
0
0
0
0
0
0
0
0
0
0
0
0
0
0
0
0
0
0
0
0
0
0
0
0
0
0
0
0
0
0
0
0
0
0
0
0
0
0
0
0
0
0
1
1
1
1
1
1
2
2
2
2
2
1
1
1
1
1
1
1
1
1
1
1
1
1
1
1
1
1
1
1
1
1
1
1
1
0
0
0
0
0
0
0
0
0
0
0
0
0
0
0
0
0
0
0
0
0
0
0
0
0
0
0
0
0
0
0
0
0
0
0
0
0
0
0
0
0
0
0
0
0
0
0
0
0
0
0
0
0
0
0
0
0
0
0
0
0
0
0
0
0
0
0
0
0
0
0
0
0
0
0
0
0
0
0
0
0
0
0
0
0
0
0
0
0
0
0
1
1
1
1
0
1
2
2
2
2
1
1
1
1
1
1
1
1
1
1
1
1
1
1
1
1
1
1
1
1
1
1
0
0
0
0
0
0
0
0
0
0
0
0
0
0
0
0
0
0
0
0
0
0
0
0
0
0
0
0
0
0
0
0
0
0
0
0
0
0
0
0
0
0
0
0
0
0
0
0
0
0
0
0
0
0
0
0
0
0
0
0
0
0
0
0
0
0
0
0
0
0
0
0
0
0
0
0
0
0
0
0
0
0
0
0
0
0
0
0
0
0
0
0
0
0
0
0
0
0
1
1
1
1
1
1
1
1
1
1
1
1
1
1
1
1
1
1
1
1
1
1
1
1
0
0
0
0
0
0
0
0
0
0
0
0
0
0
0
0
0
0
0
0
0
0
0
0
0
0
0
0
0
0
0
0
0
0
0
0
0
0
0
0
0
0
0
0
0
0
0
0
0
0
0
0
0
0
0
0
0
0
0
0
0
0
0
0
0
0
0
0
0
0
0
0
0
0
0
0
0
0
0
0
0
0
0
0
0
0
0
0
0
0
0
0
0
0
0
0
0
0
0
0
0
1
1
1
1
1
1
1
1
1
1
1
1
1
1
1
1
1
1
1
1
1
0
0
0
0
0
0
0
0
0
0
0
0
0
0
0
0
0
0
0
0
0
0
0
0
0
0
0
0
0
0
0
0
0
0
0
0
0
0
0
0
0
0
0
0
0
0
0
0
0
0
0
0
0
0
0
0
0
0
0
0
0
0
0
0
0
0
0
0
0
0
0
0
0
0
0
0
0
0
0
0
0
0
0
0
0
0
0
0
0
0
0
0
0
0
0
0
0
0
0
0
0
0
0
0
0
0
0
0
1
1
1
1
1
1
1
1
1
1
1
1
1
0
0
0
0
0
0
0
0
0
0
0
0
0
0
0
0
0
0
0
0
0
0
0
0
0
0
0
0
0
0
0
0
0
0
0
0
0
0
0
0
0
0
0
0
0
0
0
0
0
0
0
0
0
0
0
0
0
0
0
0
0
0
0
0
0
0
0
0
0
0
0
0
0
0
0
0
0
0
0
0
0
0
0
0
0
0
0
0
0
0
0
0
0
0
0
0
0
0
0
0
0
0
0
0
0
0
0
0
0
0
0
0
1
1
1
1
1
1
1
0
0
0
0
0
0
0
0
0
0
0
0
0
0
0
0
0
0
0
0
0
0
0
0
0
0
0
0
0
0
0
0
0
0
0
0
0
0
0
0
0
0
0
0
0
0
0
0
0
0
0
0
0
0
0
0
0
0
0
0
0
0
0
0
0
0
0
0
0
0
0
0
0
0
0
0
0
0
0
0
0
0
0
0
0
0
0
0
0
0
0
0
0
0
0
0
0
0
0
0
0
0
0
0
0
0
0
0
0
0
0
0
0
0
0
0
0
0
0
0
0
0
0
0
0
0
0
0
0
0
0
0
0
0
0
0
0
0
0
0
0
0
0
0
0
0
0
0
0
0
0
0
0
0
0
0
0
0
0
0
0
0
0
0
0
0
0
0
0
0
0
0
0
0
0
0
0
0
0
0
0
0
0
0
0
0
0
0
0
0
0
0
0
0
0
0
0
0
0
0
0
0
0
0
0
0
0
0
0
0
0
0
0
0
0
0
0
0
0
0
0
0
0
0
0
0
0
0
0
0
0
0
0
0
0
0
0
0
0
0
0
0
0
0
0
0
0
0
0
0
0
0
0
0
0
0
0
0
0
0
0
0
0
0
0
0
0
0
0
0
0
0
0
0
0
0
0
0
0
0
0
0
0
0
0
0
0
0
0
0
0
0
0
0
0
0
0
0
0
0
0
0
0
0
0
0
0
0
0
0
0
0
0
0
0
0
0
0
0
0
0
0
0
0
0
0
0
0
0
0
0
0
0
0
0
0
0
0
0
0
0
0
0
0
0
0
0
0
0
0
0
0
0
0
0
0
0
0
0
0
0
0
0
0
0
0
0
0
0
0
0
0
0
0
0
0
0
0
0
0
0
0
0
0
0
0
0
0
0
0
0
0
0
0
0
0
0
0
0
0
0
0
0
0
0
0
0
0
0
0
0
0
0
0
0
0
0
0
0
0
0
0
0
0
0
0
0
0
0
0
0
0
0
0
0
0
0
0
0
0
0
0
0
0
0
0
0
0
0
0
0
0
0
0
0
0
0
0
0
0
0
0
0
0
0
0
0
0
0
0
0
0
0
0
0
0
0
0
0
0
0
0
0
0
0
0
0
0
0
0
0
0
0
0
0
0
0
0
0
0
0
0
0
0
0
0
0
0
0
0
0
0
0
0
0
0
0
0
0
0
0
0
0
0
0
0
0
0
0
0
0
0
0
0
0
0
0
0
0
0
0
0
0
0
0
0
0
0
0
0
0
0
0
0
0
0
0
0
0
0
0
0
0
0
0
0
0
0
0
0
0
0
0
0
0
0
0
0
0
0
0
0
0
0
0
0
0
0
0
0
0
0
0
0
0
0
0
0
0
0
0
0
0
0
0
0
0
0
0
0
0
0
0
0
0
0
0
0
0
0
0
0
0
0
0
0
0
0
0
0
0
0
0
0
0
0
0
0
0
0
0
0
0
0
0
0
0
0
0
0
0
0
0
0
0
0
0
0
0
0
0
0
0
0
0
0
0
0
0
0
0
0
0
0
0
0
0
0
0
0
0
0
0
0
0
0
0
0
0
0
0
0
0
0
0
0
0
0
0
0
0
0
0
0
0
0
0
0
0
0
0
0
0
0
0
0
0
0
0
0
0
0
0
0
0
0
0
0
0
0
0
0
0
0
0
0
0
0
0
0
0
0
0
0
0
0
0
0
0
0
0
0
0
0
0
0
0
0
0
0
0
0
0
0
0
0
0
0
0
0
0
0
0
0
0
0
0
0
0
0
0
0
0
0
0
0
0
0
0
0
0
0
0
0
0
0
0
0
0
0
0
0
0
0
0
0
0
0
0
0
0
0
0
0
0
0
0
0
0
0
0
0
0
0
0
0
0
0
0
0
0
0
0
0
0
0
0
0
0
0
0
0
0
0
0
0
0
0
0
0
0
0
0
0
0
0
0
0
0
0
0
0
0
0
0
0
0
0
0
0
0
0
0
0
0
0
0
0
0
0
0
0
0
0
0
0
0
0
0
0
0
0
0
0
0
0
0
0
0
0
0
0
0
0
0
0
0
0
0
0
0
0
0
0
0
0
0
0
0
0
0
0
0
0
0
0
0
0
0
0
0
0
0
0
0
0
0
0
0
0
0
0
0
0
0
0
0
0
0
0
0
0
0
0
0
0
0
0
0
0
0
0
0
0
0
0
0
0
0
0
0
0
0
0
0
0
0
0
0
0
0
0
0
0
0
0
0
0
0
0
0
0
0
0
0
0
0
0
0
0
0
0
0
0
0
0
0
0
0
0
0
0
0
0
0
0
0
0
0
0
0
0
0
0
0
0
0
0
0
0
0
0
0
0
0
0
0
0
0
0
0
0
0
0
0
0
0
0
0
0
0
0
0
0
0
0
0
0
0
0
0
0
0
0
0
0
0
0
0
0
0
0
0
0
0
0
0
0
0
0
0
0
0
0
0
0
0
0
0
0
0
0
0
0
0
0
0
0
0
0
0
0
0
0
0
0
0
0
0
0
0
0
0
0
0
0
0
0
0
0
0
0
0
0
0
0
0
0
0
0
0
0
0
0
0
0
0
0
0
0
0
0
0
0
0
0
0
0
0
0
0
0
0
0
0
0
0
0
0
0
0
0
0
0
0
0
0
0
0
0
0
0
0
0
0
0
0
0
0
0
0
0
0
0
0
0
0
0
0
0
0
0
0
0
0
0
0
0
0
0
0
0
0
0
0
0
0
0
0
0
0
0
0
0
0
0
0
0
0
0
0
0
0
0
0
0
0
0
0
0
0
0
0
0
0
0
0
0
0
0
0
0
0
0
0
0
0
0
0
0
0
0
0
0
0
0
0
0
0
0
0
0
0
0
0
0
0
0
0
0
0
0
0
0
0
0
0
0
0
0
0
0
0
0
0
0
0
0
0
0
0
0
0
0
0
0
0
0
0
0
0
0
0
0
0
0
0
0
0
0
0
0
0
0
0
0
0
0
0
0
0
0
0
0
0
0
0
0
0
0
0
0
0
0
0
0
0
0
0
0
0
0
0
0
0
0
0
0
0
0
0
0
0
0
0
0
0
0
0
0
0
0
0
0
0
0
0
0
0
0
0
0
0
0
0
0
0
0
0
0
0
0
0
0
0
0
0
0
0
0
0
0
0
0
0
0
0
0
0
0
0
0
0
0
0
0
0
0
0
0
0
0
0
0
0
0
0
0
0
0
0
0
0
0
0
0
0
0
0
0
0
0
0
0
0
0
0
0
0
0
0
0
0
0
0
0
0
0
0
0
0
0
0
0
0
0
0
0
0
0
0
0
0
0
0
0
0
0
0
0
0
0
0
0
0
0
0
0
0
0
0
0
0
0
0
0
0
0
0
0
0
0
0
0
0
0
0
0
0
0
0
0
0
0
0
0
0
0
0
0
0
0
0
0
0
0
0
0
0
0
0
0
0
0
0
0
0
0
0
0
0
0
0
0
0
0
0
0
0
0
0
0
0
0
0
0
0
0
0
0
0
0
0
0
0
0
0
0
0
0
0
0
0
0
0
0
0
0
0
0
0
0
0
0
0
0
0
0
0
0
0
0
0
0
0
0
0
0
0
0
0
0
0
0
0
0
0
0
0
0
0
0
0
0
0
0
0
0
0
0
0
0
0
0
0
0
0
0
0
0
0
0
0
0
0
0
0
0
0
0
0
0
0
0
0
0
0
0
0
0
0
0
0
0
0
0
0
0
0
0
0
0
0
0
0
0
0
0
0
0
0
0
0
0
0
0
0
0
0
0
0
0
0
0
0
0
0
0
0
0
0
0
0
0
0
0
0
0
0
0
0
0
0
0
0
0
0
0
0
0
0
0
0
0
0
0
0
0
0
0
0
0
0
0
0
0
0
0
0
0
0
0
0
0
0
0
0
0
0
0
0
0
0
0
0
0
0
0
0
0
0
0
0
0
0
0
0
0
0
0
0
0
0
0
0
0
0
0
0
0
0
0
0
0
0
0
0
0
0
0
0
0
0
0
0
0
0
0
0
0
0
0
0
0
0
0
0
0
0
0
0
0
0
0
0
0
0
0
0
0
0
0
0
0
0
0
0
0
0
0
0
0
0
0
0
0
0
0
0
0
0
0
0
0
0
0
0
0
0
0
0
0
0
0
0
0
0
0
0
0
0
0
0
0
0
0
0
0
0
0
0
0
0
0
0
0
0
0
0
0
0
0
0
0
0
0
0
0
0
0
0
0
0
0
0
0
0
0
0
0
0
0
0
0
0
0
0
0
0
0
0
0
0
0
0
0
0
0
0
0
0
0
0
0
0
0
0
0
0
0
0
0
0
0
0
0
0
0
0
0
0
0
0
0
0
0
0
0
0
0
0
0
0
0
0
0
0
0
0
0
0
0
0
0
0
0
0
0
0
0
0
0
0
0
0
0
0
0
0
0
0
0
0
0
0
0
0
0
0
0
0
0
0
0
0
0
0
0
0
0
0
0
0
0
0
0
0
0
0
0
0
0
0
0
0
0
0
0
0
0
0
0
0
0
0
0
0
0
0
0
0
0
0
0
0
0
0
0
0
0
0
0
0
0
0
0
0
0
0
0
0
0
0
0
0
0
0
0
0
0
0
0
0
0
0
0
0
0
0
0
0
0
0
0
0
0
0
0
0
0
0
0
0
0
0
0
0
0
0
0
0
0
0
0
0
0
0
0
0
0
0
0
0
0
0
0
0
0
0
0
0
0
0
0
0
0
0
0
0
0
0
0
0
0
0
0
0
0
0
0
0
0
0
0
0
0
0
0
0
0
0
0
0
0
0
0
0
0
0
0
0
0
0
0
0
0
0
0
0
0
0
0
0
0
0
0
0
0
0
0
0
0
0
0
0
0
0
0
0
0
0
0
0
0
0
0
0
0
0
0
0
0
0
0
0
0
0
0
0
0
0
0
0
0
0
0
0
0
0
0
0
0
0
0
0
0
0
0
0
0
0
0
0
0
0
0
0
0
0
0
0
0
0
0
0
0
0
0
0
0
0
0
0
0
0
0
0
0
0
0
0
0
0
0
0
0
0
0
0
0
0
0
0
0
0
0
0
0
0
0
0
0
0
0
0
0
0
0
0
0
0
0
0
0
0
0
0
0
0
0
0
0
0
0
0
0
0
0
0
0
0
0
0
0
0
0
0
0
0
0
0
0
0
0
0
0
0
0
0
0
0
0
0
0
0
0
0
0
0
0
0
0
0
0
0
0
0
0
0
0
0
0
0
0
0
0
0
0
0
0
0
0
0
0
0
0
0
0
0
0
0
0
0
0
0
0
0
0
0
0
0
0
0
0
0
0
0
0
0
0
0
0
0
0
0
0
0
0
0
0
0
0
0
0
0
0
0
0
0
0
0
0
0
0
0
0
0
0
0
0
0
0
0
0
0
0
0
0
0
0
0
0
0
0
0
0
0
0
0
0
0
0
0
0
0
0
0
0
0
0
0
0
0
0
0
0
0
0
0
0
0
0
0
0
0
0
0
0
0
0
0
0
0
0
0
0
0
0
0
0
0
0
0
0
0
0
0
0
0
0
0
0
0
0
0
0
0
0
0
0
0
0
0
0
0
0
0
0
0
0
0
0
0
0
0
0
0
0
0
0
0
0
0
0
1
1
1
1
0
0
0
0
0
0
0
0
0
0
0
0
0
0
0
0
0
0
0
0
0
0
0
0
0
0
0
0
0
0
0
0
0
0
0
0
0
0
0
0
0
0
0
0
0
0
0
0
0
0
0
0
0
0
0
0
0
0
0
0
0
0
0
0
0
0
0
0
0
0
0
0
0
0
0
0
0
0
0
0
0
0
0
0
0
0
0
0
0
0
0
0
0
0
0
0
0
0
0
0
0
0
0
0
0
0
0
0
0
0
0
0
0
0
0
0
0
0
0
1
1
1
1
1
1
1
1
1
1
1
1
1
1
0
0
0
0
0
0
0
0
0
0
0
0
0
0
0
0
0
0
0
0
0
0
0
0
0
0
0
0
0
0
0
0
0
0
0
0
0
0
0
0
0
0
0
0
0
0
0
0
0
0
0
0
0
0
0
0
0
0
0
0
0
0
0
0
0
0
0
0
0
0
0
0
0
0
0
0
0
0
0
0
0
0
0
0
0
0
0
0
0
0
0
0
0
0
0
0
0
0
0
0
0
0
0
0
0
0
0
0
0
0
0
1
1
1
1
1
1
1
1
1
1
1
1
1
1
0
0
0
0
0
0
0
0
0
0
0
0
0
0
0
0
0
0
0
0
0
0
0
0
0
0
0
0
0
0
0
0
0
0
0
0
0
0
0
0
0
0
0
0
0
0
0
0
0
0
0
0
0
0
0
0
0
0
0
0
0
0
0
0
0
0
0
0
0
0
0
0
0
0
0
0
0
0
0
0
0
0
0
0
0
0
0
0
0
0
0
0
0
0
0
0
0
0
0
0
0
0
0
0
0
0
0
0
0
0
0
1
1
1
1
1
1
1
1
1
1
1
1
1
1
1
1
0
0
0
0
0
0
0
0
0
0
0
0
0
0
0
0
0
0
0
0
0
0
0
0
0
0
0
0
0
0
0
0
0
0
0
0
0
0
0
0
0
0
0
0
0
0
0
0
0
0
0
0
0
0
0
0
0
0
0
0
0
0
0
0
0
0
0
0
0
0
0
0
0
0
0
0
0
0
0
0
0
0
0
0
0
0
0
0
0
0
0
0
0
0
0
0
0
0
0
0
0
0
0
0
0
0
0
0
0
1
1
1
1
1
1
1
0
0
1
1
1
1
1
1
1
1
1
1
1
0
0
0
0
0
1
1
0
0
0
0
0
0
0
0
0
0
0
0
0
0
0
0
0
0
0
0
0
0
0
0
0
0
0
0
0
0
0
0
0
0
0
0
0
0
0
0
0
0
0
0
0
0
0
0
0
0
0
0
0
0
0
0
0
0
0
0
0
0
0
0
0
0
0
0
0
0
0
0
0
0
0
0
0
0
0
0
0
0
0
0
0
0
0
0
0
0
0
0
0
0
0
1
1
1
1
1
1
1
1
1
1
1
1
2
2
1
1
1
1
1
1
1
1
1
1
1
1
0
0
1
0
1
0
0
0
0
0
0
0
0
0
0
0
0
0
0
0
0
0
0
0
0
0
0
0
0
0
0
0
0
0
0
0
0
0
0
0
0
0
0
0
0
0
0
0
0
0
0
0
0
0
0
0
0
0
0
0
0
0
0
0
0
0
0
0
0
0
0
0
0
0
0
0
0
0
0
0
0
0
0
0
0
0
0
0
0
0
0
0
0
0
0
0
0
0
1
1
1
1
1
2
1
1
1
1
1
1
1
2
1
1
1
1
1
1
1
1
1
1
1
1
1
1
0
1
0
1
1
0
0
0
0
0
0
0
0
0
0
0
0
0
0
0
0
0
0
0
0
0
0
0
0
0
0
0
0
0
0
0
0
0
0
0
0
0
0
0
0
0
0
0
0
0
0
0
0
0
0
0
0
0
0
0
0
0
0
0
0
0
0
0
0
0
0
0
0
0
0
0
0
0
0
0
0
0
0
0
0
0
0
0
0
0
0
0
0
0
1
1
1
1
2
2
2
2
2
1
1
1
1
1
1
1
1
1
1
1
1
1
1
1
1
1
1
1
1
1
1
0
1
1
1
1
0
0
0
0
0
0
0
0
0
0
0
0
0
0
0
0
0
0
0
0
0
0
0
0
0
0
0
0
0
0
0
0
0
0
0
0
0
0
0
0
0
0
0
0
0
0
0
0
0
0
0
0
0
0
0
0
0
0
0
0
0
0
0
0
0
0
0
0
0
0
0
0
0
0
0
0
0
0
0
1
1
1
1
1
1
0
0
1
1
1
1
1
1
2
2
2
2
2
1
1
1
1
1
1
1
2
2
2
2
1
1
1
1
1
1
1
1
1
1
1
0
1
1
1
1
0
0
0
0
0
0
0
0
0
0
0
0
0
0
0
0
0
0
0
0
0
0
0
0
0
0
0
0
0
0
0
0
0
0
0
0
0
0
0
0
0
0
0
0
0
0
0
0
0
0
0
0
0
0
0
0
0
0
0
0
0
0
0
0
0
0
0
0
0
0
0
0
0
0
0
0
0
0
0
1
1
1
1
1
1
1
1
1
1
1
1
1
2
2
2
2
3
3
2
2
2
2
2
2
2
2
2
2
2
2
1
1
1
1
1
1
1
1
1
1
1
1
1
1
1
0
0
0
0
0
0
0
0
0
0
0
0
0
0
0
0
0
0
0
0
0
0
0
0
0
0
0
0
0
0
0
0
0
0
0
0
0
0
0
0
0
0
0
0
0
0
0
0
0
0
0
0
0
0
0
0
0
0
0
0
0
0
0
0
0
0
0
0
0
0
0
0
0
0
0
0
0
0
1
1
1
1
1
1
1
1
1
1
1
1
1
1
1
2
2
2
3
3
2
2
2
2
2
2
2
3
3
2
2
2
2
2
1
1
1
1
1
1
1
1
1
2
2
1
1
1
1
1
1
1
0
0
0
0
0
0
0
0
0
0
0
0
0
0
0
0
0
0
0
0
0
0
0
0
0
0
0
0
0
0
0
0
0
0
0
0
0
0
0
0
0
0
0
0
0
0
0
0
0
0
0
0
0
0
0
0
0
0
0
0
0
0
0
0
0
0
0
0
0
0
0
1
1
1
1
1
1
1
1
1
1
1
1
1
1
1
1
2
2
2
2
4
4
3
3
3
3
3
3
3
3
3
3
3
2
2
2
2
2
2
2
1
1
1
1
1
2
2
2
2
1
1
1
1
1
1
0
0
0
0
0
0
0
0
0
0
0
0
0
0
0
0
0
0
0
0
0
0
0
0
0
0
0
0
0
0
0
0
0
0
0
0
0
0
0
0
0
0
0
0
0
0
0
0
0
0
0
0
0
0
0
0
0
0
0
0
0
0
0
0
0
0
1
1
1
1
1
1
1
1
1
1
1
1
1
1
1
1
1
1
2
2
2
2
2
2
4
4
1
1
1
1
1
1
1
1
1
2
2
2
1
2
1
1
2
2
2
2
1
1
1
3
2
2
2
1
1
1
1
1
1
1
0
0
0
0
0
0
0
0
0
0
0
0
0
0
0
0
0
0
0
0
0
0
0
0
0
0
0
0
0
0
0
0
0
0
0
0
0
0
0
0
0
0
0
0
0
0
0
0
0
0
0
0
0
0
0
0
0
0
0
0
0
0
0
0
0
0
0
0
0
1
1
1
1
1
1
1
2
1
1
2
2
2
2
2
2
2
2
3
2
4
5
1
1
1
1
2
2
2
2
2
2
2
2
2
2
2
2
2
3
2
1
1
1
1
2
2
1
2
1
1
1
1
1
1
1
1
1
0
0
0
0
0
0
0
0
0
0
0
0
0
0
0
0
0
0
0
0
0
0
0
0
0
0
0
0
0
0
0
0
0
0
0
0
0
0
0
0
0
0
0
0
0
0
0
0
0
0
0
0
0
0
0
0
0
0
0
0
0
0
0
0
0
1
0
1
1
1
2
1
2
2
1
1
1
1
1
1
1
2
2
3
4
4
4
6
6
2
2
2
2
3
3
3
3
2
2
1
1
1
1
1
1
1
1
1
1
1
1
1
1
0
1
2
1
1
1
2
1
1
1
1
1
0
0
0
0
0
0
0
0
0
0
0
0
0
0
0
0
0
0
0
0
0
0
0
0
0
0
0
0
0
0
0
0
0
0
0
0
0
0
0
0
0
0
0
0
0
0
0
0
0
0
0
0
0
0
0
0
0
0
0
0
0
0
0
0
1
1
1
1
1
2
2
2
2
2
2
1
1
1
2
2
2
3
3
6
8
8
8
8
7
2
2
2
4
4
3
3
3
3
2
1
1
1
1
1
1
1
1
1
1
1
1
1
1
1
1
3
2
1
1
2
1
1
1
1
1
1
1
0
0
0
0
0
0
0
0
0
0
0
0
0
0
0
0
0
0
0
0
0
0
0
0
0
0
0
0
0
0
0
0
0
0
0
0
0
0
0
0
0
0
0
0
0
0
0
0
0
0
0
0
0
0
0
0
0
0
0
0
1
1
1
1
1
1
1
2
2
2
2
2
2
2
1
2
2
2
3
3
4
7
8
8
8
8
8
2
2
2
4
4
4
4
4
4
2
2
2
2
2
2
1
2
4
4
3
3
3
2
2
2
2
3
1
1
1
1
2
1
1
1
1
1
1
1
0
0
0
0
0
0
0
0
0
0
0
0
0
0
0
0
0
0
0
0
0
0
0
0
0
0
0
0
0
0
0
0
0
0
0
0
0
0
0
0
0
0
0
0
0
0
0
0
0
0
0
0
0
0
0
0
0
0
1
1
1
1
1
1
1
1
2
3
2
2
3
3
2
2
2
2
3
3
4
5
8
10
10
10
10
10
2
3
3
5
4
5
4
5
5
3
2
2
2
2
2
2
2
4
4
3
3
3
3
2
2
2
4
1
1
1
1
2
1
1
1
1
1
1
1
0
0
0
0
0
0
0
0
0
0
0
0
0
0
0
0
0
0
0
0
0
0
0
0
0
0
0
0
0
0
0
0
0
0
0
0
0
0
0
0
0
0
0
0
0
0
0
0
0
0
0
0
0
0
0
0
0
1
1
1
1
1
1
1
1
2
2
3
3
3
3
3
3
3
3
3
3
3
4
5
6
7
8
8
11
12
3
3
4
6
4
7
4
5
5
3
2
2
2
2
2
2
2
4
3
2
2
2
1
2
1
2
4
2
2
1
2
2
2
1
1
1
1
1
1
0
0
0
0
0
0
0
0
0
0
0
0
0
0
0
0
0
0
0
0
0
0
0
0
0
0
0
0
0
0
0
0
0
0
0
0
0
0
0
0
0
0
0
0
0
0
0
0
0
0
0
0
0
0
1
1
1
1
1
1
1
1
1
1
2
2
3
3
3
3
3
3
3
3
3
3
4
4
4
5
7
8
9
8
13
13
3
4
5
6
5
10
4
6
6
4
2
3
3
3
2
2
3
5
2
1
2
2
2
2
2
3
5
5
4
4
4
2
2
2
1
1
1
1
1
1
0
0
0
0
0
0
0
0
0
0
0
0
0
0
0
0
0
0
0
0
0
0
0
0
0
0
0
0
0
0
0
0
0
0
0
0
0
0
0
0
0
0
0
0
0
0
0
0
0
0
1
1
1
1
1
1
1
1
2
2
2
2
3
3
3
4
4
4
4
4
4
4
4
4
4
4
4
5
6
7
8
9
9
15
15
4
4
5
7
7
9
6
7
7
4
3
3
3
3
3
2
3
6
2
2
2
2
2
3
8
5
5
5
4
4
3
2
1
1
1
1
1
1
1
1
1
0
0
0
0
0
0
0
0
0
0
0
0
0
0
0
0
0
0
0
0
0
0
0
0
0
0
0
0
0
0
0
0
0
0
0
0
0
0
0
0
0
0
0
0
0
0
0
0
0
0
0
0
1
1
1
1
1
1
1
2
2
3
3
3
4
4
4
4
4
5
5
5
5
6
6
6
7
8
7
9
8
8
18
17
5
5
6
8
8
9
7
8
7
4
3
4
3
3
3
3
4
7
3
2
1
2
1
3
7
5
3
3
3
2
3
3
2
1
1
1
0
0
0
1
1
1
1
1
0
0
0
0
0
0
0
0
0
0
0
0
0
0
0
0
0
0
0
0
0
0
0
0
0
0
0
0
0
0
0
0
0
0
0
0
0
0
0
0
0
0
0
0
0
0
0
0
0
0
1
0
1
1
1
1
1
1
1
1
2
4
5
4
5
5
5
5
5
5
5
6
6
6
7
10
10
10
12
20
20
5
5
7
10
9
9
9
9
8
5
4
4
3
4
4
3
5
8
7
7
6
5
4
3
3
4
4
6
4
2
3
4
2
1
1
1
1
1
0
1
1
1
1
1
0
0
0
0
0
0
0
0
0
0
0
0
0
0
0
0
0
0
0
0
0
0
0
0
0
0
0
0
0
0
0
0
0
0
0
0
0
0
0
0
0
0
0
0
0
0
0
0
1
1
1
1
1
1
1
1
2
2
2
2
2
5
5
5
5
6
5
6
6
6
7
7
7
7
12
23
23
23
23
23
23
6
5
8
11
12
12
9
10
10
6
4
4
4
4
3
4
6
10
6
5
5
5
5
4
4
5
4
6
4
3
4
5
2
1
1
1
1
1
1
1
1
1
1
1
0
0
0
0
0
0
0
0
0
0
0
0
0
0
0
0
0
0
0
0
0
0
0
0
0
0
0
0
0
0
0
0
0
0
0
0
0
0
0
0
0
0
0
0
0
0
0
1
1
1
1
1
1
1
1
2
2
2
2
2
3
6
6
5
6
6
7
7
7
7
8
9
9
9
14
25
24
24
27
25
27
6
6
9
12
13
15
9
11
11
7
5
5
4
5
5
4
6
11
3
3
3
2
2
2
2
6
5
6
3
3
3
3
2
2
1
1
1
1
1
1
1
1
1
1
1
0
0
0
0
0
0
0
0
0
0
0
0
0
0
0
0
0
0
0
0
0
0
0
0
0
0
0
0
0
0
0
0
0
0
0
0
0
0
0
0
0
0
0
0
0
1
1
1
1
1
1
1
1
2
2
2
2
2
3
3
6
6
6
7
6
7
8
8
8
9
10
10
10
18
26
26
26
29
28
30
7
8
10
13
13
15
10
12
12
7
5
6
5
6
6
4
6
12
3
4
4
3
3
3
3
7
6
3
2
2
2
3
3
2
2
1
1
1
1
1
1
1
1
1
1
0
0
0
0
0
0
0
0
0
0
0
0
0
0
0
0
0
0
0
0
0
0
0
0
0
0
0
0
0
0
0
0
0
0
0
0
0
0
0
0
0
0
0
0
1
1
1
1
1
1
1
2
2
2
2
3
3
3
4
4
7
7
7
8
8
8
8
9
9
10
11
11
12
15
20
26
28
30
33
34
8
8
11
15
15
15
13
14
13
7
6
6
5
6
4
5
8
13
4
2
3
3
2
3
3
7
6
3
2
2
2
3
3
2
1
1
1
1
1
1
1
1
1
1
1
0
0
0
0
0
0
0
0
0
0
0
0
0
0
0
0
0
0
0
0
0
0
0
0
0
0
0
0
0
0
0
0
0
0
0
0
0
0
0
0
0
0
0
1
1
1
1
1
1
1
1
1
2
2
2
2
2
3
4
4
8
8
8
8
8
9
9
9
10
10
11
12
12
16
18
22
22
28
38
38
9
7
12
18
17
16
17
16
14
8
6
7
6
6
6
6
9
15
10
8
7
6
6
4
5
8
10
10
9
8
8
6
4
4
4
3
3
2
2
2
1
1
1
1
1
0
1
1
1
0
0
0
0
0
0
0
0
0
0
0
0
0
0
0
0
0
0
0
0
0
0
0
0
0
0
0
0
0
0
0
0
0
0
0
0
1
1
1
1
1
1
1
2
2
2
3
3
3
4
4
5
5
5
6
6
9
8
9
10
10
10
11
11
11
12
12
13
14
14
21
25
25
30
43
43
9
9
14
18
16
17
14
17
15
9
7
7
7
7
7
6
9
17
14
14
13
11
11
15
21
8
15
15
13
12
10
7
5
5
5
4
4
3
2
2
1
1
1
1
1
0
1
1
1
0
0
0
0
0
0
0
0
0
0
0
0
0
0
0
0
0
0
0
0
0
0
0
0
0
0
0
0
0
0
0
1
1
1
1
1
1
1
1
1
1
2
2
2
2
3
3
4
4
4
5
6
6
7
8
8
11
10
9
10
10
12
12
12
13
14
15
16
17
18
19
21
21
27
48
47
10
10
16
19
17
19
15
18
16
10
8
8
8
7
6
8
12
15
6
5
5
5
4
11
19
10
9
8
6
6
9
7
4
3
3
2
2
1
2
2
2
1
2
1
1
0
0
0
0
0
0
0
0
0
0
0
0
0
0
0
0
0
0
0
0
0
0
0
0
0
0
0
0
0
0
0
0
0
0
0
0
0
1
1
1
1
0
0
1
1
1
1
1
1
1
1
2
2
2
2
3
3
3
4
6
10
10
10
11
12
11
11
12
13
14
14
16
17
17
21
19
20
31
53
52
11
11
17
21
19
21
16
19
17
10
8
9
9
8
8
9
13
15
7
6
5
5
5
4
4
10
10
12
9
7
11
9
5
3
2
2
2
2
1
2
3
1
2
1
1
1
0
0
0
0
0
0
0
0
0
0
0
0
0
0
0
0
0
0
0
0
0
0
0
0
0
0
0
0
0
0
0
0
0
0
0
0
0
0
0
0
1
1
1
1
1
1
1
2
2
2
2
3
3
4
4
4
4
4
7
13
13
11
12
13
12
12
13
14
15
15
17
18
33
50
53
54
55
58
51
12
12
20
24
21
24
21
23
19
11
9
10
10
9
7
9
16
17
7
5
5
6
5
4
4
15
10
12
8
8
13
10
6
3
2
2
2
2
1
3
3
1
2
1
1
1
0
0
0
0
0
0
0
0
0
0
0
0
0
0
0
0
0
0
0
0
0
0
0
0
0
0
0
0
0
0
0
0
0
0
0
0
0
0
0
0
1
1
1
1
1
1
2
2
2
2
2
3
3
4
4
4
5
5
8
14
14
12
13
15
14
15
16
17
18
18
20
21
44
56
55
58
58
57
55
13
14
22
25
23
26
24
26
21
12
9
11
11
10
10
9
17
19
11
8
7
7
6
5
5
15
11
15
8
9
11
9
6
4
3
3
2
2
2
3
3
2
2
2
1
1
0
0
0
0
0
0
0
0
0
0
0
0
0
0
0
0
0
0
0
0
0
0
0
0
0
0
0
0
0
0
0
0
0
0
0
0
0
0
0
1
1
1
1
1
1
2
2
2
2
3
3
4
4
5
5
5
6
7
9
14
14
14
15
16
17
17
19
20
21
22
23
24
53
60
60
66
61
53
55
14
14
23
27
24
28
23
26
22
12
10
11
12
11
10
7
18
25
23
23
21
19
17
15
8
17
12
8
4
4
6
7
6
3
3
3
2
2
2
3
3
2
2
2
1
1
0
0
0
0
0
0
0
0
0
0
0
0
0
0
0
0
0
0
0
0
0
0
0
0
0
0
0
0
0
0
0
0
0
0
0
0
0
0
1
1
1
1
1
1
2
2
2
3
3
3
3
4
5
6
6
6
7
9
11
16
15
16
17
17
18
19
21
23
23
24
25
26
47
56
63
68
54
36
33
14
15
25
28
25
29
22
27
24
14
11
12
12
12
11
10
22
21
11
9
8
8
7
10
7
19
14
5
5
4
6
7
7
4
3
3
2
2
2
3
3
2
2
2
1
1
1
0
0
0
0
0
0
0
0
0
0
0
0
0
0
0
0
0
0
0
0
0
0
0
0
0
0
0
0
0
0
0
0
0
0
0
0
0
1
1
1
1
1
1
2
2
2
3
3
3
4
5
5
6
7
7
8
10
12
17
17
17
19
19
20
21
22
24
24
24
26
28
47
52
53
53
54
50
50
13
15
25
29
26
30
22
29
27
16
13
13
13
12
11
10
23
19
11
10
9
9
10
8
12
16
15
15
12
12
11
8
7
6
5
5
4
3
3
3
3
2
2
2
1
1
1
1
1
0
0
0
0
0
0
0
0
0
0
0
0
0
0
0
0
0
0
0
0
0
0
0
0
0
0
0
0
0
0
0
0
0
0
0
1
1
1
1
2
2
2
3
3
4
4
5
6
7
7
8
9
10
11
12
14
20
18
18
20
21
20
22
23
23
23
24
26
29
46
63
70
64
66
60
54
13
16
28
30
29
31
27
31
25
15
13
15
15
13
13
14
24
19
11
10
10
9
8
31
40
16
34
30
26
24
20
12
11
11
9
8
7
6
5
3
3
2
2
2
1
1
2
2
1
1
1
1
0
0
0
0
0
0
0
0
0
0
0
0
0
0
0
0
0
0
0
0
0
0
0
0
0
0
1
1
1
1
1
1
2
2
2
2
2
3
3
4
5
5
6
7
8
9
10
12
13
15
17
19
21
21
20
21
22
22
21
26
27
25
28
31
30
36
48
51
56
52
64
116
91
14
18
30
34
33
35
30
34
29
17
14
16
15
13
9
11
26
22
13
9
10
10
8
27
35
21
29
19
17
17
22
13
12
11
10
8
7
6
5
3
4
2
2
2
2
1
1
1
1
1
1
0
0
0
0
0
0
0
0
0
0
0
0
0
0
0
0
0
0
0
0
0
0
0
0
0
1
1
1
1
1
1
2
2
2
1
1
1
1
2
2
2
2
3
3
4
4
5
7
8
9
10
11
12
18
22
22
22
24
24
26
25
28
29
30
34
41
42
41
40
45
41
73
123
107
15
19
32
35
34
36
31
36
31
19
15
17
16
15
18
14
31
34
34
31
28
25
23
16
13
23
32
17
14
14
23
14
12
11
10
8
7
6
5
5
5
2
3
2
2
1
1
0
0
0
0
0
0
0
0
0
0
0
0
0
0
0
0
0
0
0
0
0
0
0
0
0
0
0
0
0
0
0
0
0
0
0
0
1
1
1
1
1
1
1
1
2
2
2
3
3
4
4
5
6
6
6
7
8
16
25
24
22
24
25
16
13
19
21
22
31
54
44
86
92
103
85
112
135
111
15
20
33
35
32
35
28
35
32
20
15
18
18
17
13
12
32
29
23
19
18
17
17
16
14
26
31
18
16
13
24
15
13
12
11
9
8
7
6
4
5
3
4
2
2
1
1
1
0
0
0
0
0
0
0
0
0
0
0
0
0
0
0
0
0
0
0
0
0
0
0
0
0
0
0
0
0
0
0
0
0
0
0
0
1
1
1
1
1
1
1
2
2
3
3
3
3
4
5
6
7
7
8
8
17
26
24
22
26
26
18
19
24
23
26
37
67
51
100
106
117
97
112
134
124
16
21
35
37
34
37
27
36
32
20
16
19
20
18
16
16
38
23
14
11
12
12
9
11
14
27
35
21
17
15
25
15
14
13
11
10
9
7
6
5
5
3
4
3
2
1
1
1
0
0
0
0
0
0
0
0
0
0
0
0
0
0
0
0
0
0
0
0
0
0
0
0
0
0
0
0
0
0
0
0
0
0
0
1
1
1
1
1
1
1
2
2
3
3
3
3
3
4
5
6
7
7
9
9
18
26
24
23
28
27
18
23
25
25
33
36
63
58
118
111
119
117
114
136
132
17
22
38
42
39
42
32
41
36
22
18
20
20
18
18
15
37
20
15
14
14
12
12
10
17
31
35
11
8
12
26
17
15
14
12
10
9
8
6
6
6
3
5
3
2
1
1
1
1
0
0
0
0
0
0
0
0
0
0
0
0
0
0
0
0
0
0
0
0
0
0
0
0
0
0
0
0
0
0
0
0
0
1
1
1
1
1
1
2
2
2
3
3
4
4
4
5
6
7
8
8
8
11
12
20
26
25
26
29
27
21
23
26
31
40
37
56
65
118
115
136
157
135
142
137
17
23
40
44
42
46
38
45
38
23
19
21
21
18
16
15
44
23
14
9
11
12
10
12
17
30
33
10
8
8
28
17
16
14
12
11
9
8
6
5
5
3
4
3
2
1
1
1
0
0
0
0
0
0
0
0
0
0
0
0
0
0
0
0
0
0
0
0
0
0
0
0
0
0
0
0
0
0
0
0
0
1
1
1
1
1
1
2
2
2
3
3
3
4
4
5
5
6
8
9
11
11
13
15
22
28
28
27
29
28
26
26
29
32
33
33
42
51
73
81
97
104
63
61
67
17
24
41
44
43
47
40
47
38
23
20
24
23
19
19
12
44
31
34
31
30
28
28
23
20
33
35
12
13
13
29
18
16
14
13
11
10
8
6
6
4
4
3
3
2
1
1
1
0
0
0
0
0
0
0
0
0
0
0
0
0
0
0
0
0
0
0
0
0
0
0
0
0
0
0
0
0
0
0
0
0
0
1
1
1
1
1
2
2
2
3
3
4
4
5
5
6
7
8
9
10
10
13
15
22
28
29
29
29
31
26
25
32
32
28
40
46
45
79
98
101
80
43
42
50
20
22
41
44
34
41
38
43
36
22
25
23
17
22
17
15
39
38
33
36
35
31
64
64
56
49
45
46
38
35
30
18
17
15
14
12
10
9
7
5
7
6
6
5
4
3
2
2
1
1
1
1
1
0
0
0
0
0
0
0
0
0
0
0
0
0
0
0
0
0
0
0
0
0
0
0
0
0
0
0
1
1
1
1
1
2
2
3
4
5
5
6
7
8
9
10
12
14
15
17
20
22
24
25
29
30
29
31
32
34
32
34
35
37
40
44
49
53
72
79
77
58
43
43
49
20
22
42
39
35
44
34
44
37
20
22
24
21
24
21
15
43
25
17
17
16
16
66
43
57
53
42
36
36
32
31
19
17
16
14
12
10
9
7
5
7
7
6
5
4
4
2
2
2
1
1
1
1
1
0
0
0
0
0
0
0
0
0
0
0
0
0
0
0
0
0
0
0
0
0
1
1
1
1
1
2
2
2
3
3
4
4
3
3
4
5
6
6
6
7
9
10
11
13
15
18
20
23
24
31
33
30
32
34
37
40
43
45
49
52
57
62
65
71
77
79
70
55
46
47
20
24
46
37
38
46
40
51
40
25
24
28
26
25
20
15
49
20
15
15
16
20
64
27
63
59
33
15
15
19
32
20
18
16
14
12
11
9
7
7
6
4
3
3
2
1
1
1
1
0
0
0
0
0
0
0
0
0
0
0
0
0
0
0
0
0
0
0
0
0
0
0
0
0
0
0
1
1
1
1
1
2
2
2
3
4
3
1
1
1
1
1
2
4
3
3
3
4
4
5
5
5
8
12
27
36
33
35
37
35
31
33
35
38
39
40
41
42
40
39
42
44
39
32
39
20
24
51
43
49
48
47
51
36
29
24
24
19
18
21
18
45
22
18
13
12
16
70
26
60
60
36
19
15
26
33
21
19
17
15
13
11
9
7
7
6
4
4
3
3
1
1
1
1
0
0
0
0
0
0
0
0
0
0
0
0
0
0
0
0
0
0
0
0
0
0
0
0
0
0
0
0
0
0
0
0
0
0
1
1
1
2
1
2
2
2
2
3
5
3
4
5
6
8
9
9
9
9
12
28
37
32
35
38
36
35
38
40
43
44
44
45
44
29
25
25
31
30
29
37
18
26
50
48
56
48
49
52
44
68
74
78
76
73
64
56
55
38
34
29
29
32
65
33
67
63
37
18
14
29
33
21
19
17
15
13
11
10
7
7
5
4
5
3
3
1
1
1
1
1
1
1
1
0
0
0
0
0
0
0
0
0
0
0
0
0
0
0
0
0
0
0
0
0
0
0
0
0
0
0
1
1
1
1
1
1
1
1
1
1
2
2
3
5
3
3
4
6
8
8
8
8
13
16
30
38
33
35
39
36
34
37
40
43
46
48
51
52
21
22
24
29
34
36
36
15
31
43
42
50
43
47
47
39
73
76
74
69
66
60
62
58
53
55
46
38
33
65
36
63
59
36
16
12
16
34
22
20
18
16
14
12
10
7
8
5
4
6
4
3
1
1
1
1
1
1
0
1
0
0
0
0
0
0
0
0
0
0
0
0
0
0
0
0
0
0
0
0
0
0
0
0
0
0
0
1
1
1
1
1
1
2
2
2
2
3
3
5
5
5
6
7
8
9
10
10
10
12
15
29
37
35
37
39
37
35
38
42
45
49
51
53
56
27
28
28
27
31
38
40
17
56
50
39
41
42
45
51
44
81
78
77
72
65
69
62
51
28
40
41
39
36
82
62
69
63
31
11
11
15
34
23
21
18
16
14
12
10
8
7
5
5
4
3
3
1
1
1
1
1
0
0
0
0
0
0
0
0
0
0
0
0
0
0
0
0
0
0
0
0
0
0
0
0
0
0
0
0
0
0
1
1
1
1
1
2
2
2
2
3
3
3
5
5
5
6
7
9
11
12
13
14
19
21
30
34
33
36
39
41
36
39
42
46
48
48
49
51
54
57
54
48
45
47
49
